%TF.GenerationSoftware,KiCad,Pcbnew,7.0.9*%
%TF.CreationDate,2024-01-13T03:54:49-03:00*%
%TF.ProjectId,placacomLed,706c6163-6163-46f6-9d4c-65642e6b6963,rev?*%
%TF.SameCoordinates,Original*%
%TF.FileFunction,Legend,Top*%
%TF.FilePolarity,Positive*%
%FSLAX46Y46*%
G04 Gerber Fmt 4.6, Leading zero omitted, Abs format (unit mm)*
G04 Created by KiCad (PCBNEW 7.0.9) date 2024-01-13 03:54:49*
%MOMM*%
%LPD*%
G01*
G04 APERTURE LIST*
%ADD10C,0.150000*%
%ADD11C,0.120000*%
G04 APERTURE END LIST*
D10*
X140803333Y-76274819D02*
X140470000Y-75798628D01*
X140231905Y-76274819D02*
X140231905Y-75274819D01*
X140231905Y-75274819D02*
X140612857Y-75274819D01*
X140612857Y-75274819D02*
X140708095Y-75322438D01*
X140708095Y-75322438D02*
X140755714Y-75370057D01*
X140755714Y-75370057D02*
X140803333Y-75465295D01*
X140803333Y-75465295D02*
X140803333Y-75608152D01*
X140803333Y-75608152D02*
X140755714Y-75703390D01*
X140755714Y-75703390D02*
X140708095Y-75751009D01*
X140708095Y-75751009D02*
X140612857Y-75798628D01*
X140612857Y-75798628D02*
X140231905Y-75798628D01*
X141755714Y-76274819D02*
X141184286Y-76274819D01*
X141470000Y-76274819D02*
X141470000Y-75274819D01*
X141470000Y-75274819D02*
X141374762Y-75417676D01*
X141374762Y-75417676D02*
X141279524Y-75512914D01*
X141279524Y-75512914D02*
X141184286Y-75560533D01*
X152474819Y-80823333D02*
X153189104Y-80823333D01*
X153189104Y-80823333D02*
X153331961Y-80870952D01*
X153331961Y-80870952D02*
X153427200Y-80966190D01*
X153427200Y-80966190D02*
X153474819Y-81109047D01*
X153474819Y-81109047D02*
X153474819Y-81204285D01*
X153474819Y-79823333D02*
X153474819Y-80394761D01*
X153474819Y-80109047D02*
X152474819Y-80109047D01*
X152474819Y-80109047D02*
X152617676Y-80204285D01*
X152617676Y-80204285D02*
X152712914Y-80299523D01*
X152712914Y-80299523D02*
X152760533Y-80394761D01*
X134654819Y-85828094D02*
X133654819Y-85828094D01*
X133654819Y-85828094D02*
X133654819Y-85589999D01*
X133654819Y-85589999D02*
X133702438Y-85447142D01*
X133702438Y-85447142D02*
X133797676Y-85351904D01*
X133797676Y-85351904D02*
X133892914Y-85304285D01*
X133892914Y-85304285D02*
X134083390Y-85256666D01*
X134083390Y-85256666D02*
X134226247Y-85256666D01*
X134226247Y-85256666D02*
X134416723Y-85304285D01*
X134416723Y-85304285D02*
X134511961Y-85351904D01*
X134511961Y-85351904D02*
X134607200Y-85447142D01*
X134607200Y-85447142D02*
X134654819Y-85589999D01*
X134654819Y-85589999D02*
X134654819Y-85828094D01*
X134654819Y-84304285D02*
X134654819Y-84875713D01*
X134654819Y-84589999D02*
X133654819Y-84589999D01*
X133654819Y-84589999D02*
X133797676Y-84685237D01*
X133797676Y-84685237D02*
X133892914Y-84780475D01*
X133892914Y-84780475D02*
X133940533Y-84875713D01*
D11*
%TO.C,R1*%
X135900000Y-77300000D02*
X135900000Y-76820000D01*
X146040000Y-80660000D02*
X146040000Y-80180000D01*
X135900000Y-76820000D02*
X146040000Y-76820000D01*
X135900000Y-80180000D02*
X135900000Y-80660000D01*
X135900000Y-80660000D02*
X146040000Y-80660000D01*
X146040000Y-76820000D02*
X146040000Y-77300000D01*
%TO.C,J1*%
X154020000Y-84400000D02*
X154020000Y-76580000D01*
X154020000Y-76580000D02*
X161140000Y-76580000D01*
X159580000Y-84400000D02*
X159580000Y-76580000D01*
X159640000Y-84640000D02*
X161380000Y-84640000D01*
X154020000Y-84400000D02*
X161140000Y-84400000D01*
X161380000Y-84640000D02*
X161380000Y-83140000D01*
X161140000Y-84400000D02*
X161140000Y-76580000D01*
X158088000Y-80808000D02*
G75*
G03*
X156872258Y-80807891I-607999J-1432003D01*
G01*
X159034999Y-82240000D02*
G75*
G03*
X158911384Y-81632413I-1554999J0D01*
G01*
X156048000Y-81632000D02*
G75*
G03*
X156047891Y-82847742I1432000J-608000D01*
G01*
X158911999Y-82848000D02*
G75*
G03*
X159035492Y-82212989I-1431987J607998D01*
G01*
X156872000Y-83672000D02*
G75*
G03*
X158087742Y-83672109I608000J1432000D01*
G01*
X159035000Y-78740000D02*
G75*
G03*
X159035000Y-78740000I-1555000J0D01*
G01*
%TO.C,D1*%
X135924000Y-86650000D02*
X136080000Y-86650000D01*
X138240000Y-86650000D02*
X138396000Y-86650000D01*
X136080164Y-84048871D02*
G75*
G03*
X136080001Y-86130960I1079836J-1041129D01*
G01*
X138395515Y-86649999D02*
G75*
G03*
X138238608Y-83417666I-1235515J1559999D01*
G01*
X138239999Y-86130960D02*
G75*
G03*
X138239836Y-84048871I-1079999J1040960D01*
G01*
X136081392Y-83417666D02*
G75*
G03*
X135924485Y-86649999I1078608J-1672334D01*
G01*
%TD*%
M02*
