M48
; DRILL file {KiCad 7.0.9} date Sun Jan 14 11:36:38 2024
; FORMAT={-:-/ absolute / inch / decimal}
; #@! TF.CreationDate,2024-01-14T11:36:38-03:00
; #@! TF.GenerationSoftware,Kicad,Pcbnew,7.0.9
; #@! TF.FileFunction,Plated,1,2,PTH
FMAT,2
INCH
; #@! TA.AperFunction,Plated,PTH,ComponentDrill
T1C0.0236
; #@! TA.AperFunction,Plated,PTH,ComponentDrill
T2C0.0276
; #@! TA.AperFunction,Plated,PTH,ComponentDrill
T3C0.0315
; #@! TA.AperFunction,Plated,PTH,ComponentDrill
T4C0.0354
; #@! TA.AperFunction,Plated,PTH,ComponentDrill
T5C0.0598
; #@! TA.AperFunction,Plated,PTH,ComponentDrill
T6C0.0984
%
G90
G05
T1
X4.1213Y-4.35
X4.2Y-4.35
T2
X3.95Y-3.95
X3.95Y-4.25
X3.95Y-4.45
X3.95Y-4.75
X4.85Y-4.0
X4.85Y-4.8
X5.15Y-4.0
X5.15Y-4.8
T3
X4.3504Y-4.5004
X4.3504Y-4.6004
X4.3504Y-4.7004
X4.3504Y-4.8004
X4.6504Y-4.5004
X4.6504Y-4.6004
X4.6504Y-4.7004
X4.6504Y-4.8004
X4.85Y-4.15
X4.8504Y-4.3504
X4.8504Y-4.4504
X4.8504Y-4.5504
X4.8504Y-4.6504
X4.9484Y-4.15
X5.1504Y-4.3504
X5.1504Y-4.4504
X5.1504Y-4.5504
X5.1504Y-4.6504
T4
X3.65Y-4.0
X3.65Y-4.1
X3.65Y-4.3
X3.65Y-4.4
X3.65Y-4.6
X3.65Y-4.7
X5.4Y-4.0047
X5.4Y-4.1047
X5.4Y-4.3
X5.4Y-4.4
X5.4Y-4.5953
X5.4Y-4.6953
T5
X4.4Y-4.1
X4.6Y-4.1
T6
X3.3Y-3.95
X3.3Y-4.85
X5.75Y-3.95
X5.75Y-4.85
T0
M30
