%TF.GenerationSoftware,KiCad,Pcbnew,7.0.9*%
%TF.CreationDate,2024-01-14T11:36:33-03:00*%
%TF.ProjectId,policeLed,706f6c69-6365-44c6-9564-2e6b69636164,rev?*%
%TF.SameCoordinates,Original*%
%TF.FileFunction,Copper,L1,Top*%
%TF.FilePolarity,Positive*%
%FSLAX46Y46*%
G04 Gerber Fmt 4.6, Leading zero omitted, Abs format (unit mm)*
G04 Created by KiCad (PCBNEW 7.0.9) date 2024-01-14 11:36:33*
%MOMM*%
%LPD*%
G01*
G04 APERTURE LIST*
%TA.AperFunction,ComponentPad*%
%ADD10R,1.600000X1.600000*%
%TD*%
%TA.AperFunction,ComponentPad*%
%ADD11O,1.600000X1.600000*%
%TD*%
%TA.AperFunction,ComponentPad*%
%ADD12O,1.400000X1.400000*%
%TD*%
%TA.AperFunction,ComponentPad*%
%ADD13C,1.400000*%
%TD*%
%TA.AperFunction,ComponentPad*%
%ADD14R,3.000000X3.000000*%
%TD*%
%TA.AperFunction,ComponentPad*%
%ADD15C,3.000000*%
%TD*%
%TA.AperFunction,ComponentPad*%
%ADD16C,5.000000*%
%TD*%
%TA.AperFunction,ComponentPad*%
%ADD17R,1.800000X1.800000*%
%TD*%
%TA.AperFunction,ComponentPad*%
%ADD18C,1.800000*%
%TD*%
%TA.AperFunction,ComponentPad*%
%ADD19R,1.200000X1.200000*%
%TD*%
%TA.AperFunction,ComponentPad*%
%ADD20C,1.200000*%
%TD*%
%TA.AperFunction,ComponentPad*%
%ADD21C,1.600000*%
%TD*%
%TA.AperFunction,Conductor*%
%ADD22C,0.250000*%
%TD*%
G04 APERTURE END LIST*
D10*
%TO.P,U2,1,GND*%
%TO.N,GND*%
X123200000Y-110500000D03*
D11*
%TO.P,U2,2,TR*%
%TO.N,Net-(U2-THR)*%
X123200000Y-113040000D03*
%TO.P,U2,3,Q*%
%TO.N,Net-(D4-K)*%
X123200000Y-115580000D03*
%TO.P,U2,4,R*%
%TO.N,+9V*%
X123200000Y-118120000D03*
%TO.P,U2,5,CV*%
%TO.N,unconnected-(U2-CV-Pad5)*%
X130820000Y-118120000D03*
%TO.P,U2,6,THR*%
%TO.N,Net-(U2-THR)*%
X130820000Y-115580000D03*
%TO.P,U2,7,DIS*%
%TO.N,unconnected-(U2-DIS-Pad7)*%
X130820000Y-113040000D03*
%TO.P,U2,8,VCC*%
%TO.N,+9V*%
X130820000Y-110500000D03*
%TD*%
D10*
%TO.P,U1,1,GND*%
%TO.N,GND*%
X110500000Y-114310000D03*
D11*
%TO.P,U1,2,TR*%
%TO.N,Net-(U1-THR)*%
X110500000Y-116850000D03*
%TO.P,U1,3,Q*%
%TO.N,Net-(D1-K)*%
X110500000Y-119390000D03*
%TO.P,U1,4,R*%
%TO.N,+9V*%
X110500000Y-121930000D03*
%TO.P,U1,5,CV*%
%TO.N,unconnected-(U1-CV-Pad5)*%
X118120000Y-121930000D03*
%TO.P,U1,6,THR*%
%TO.N,Net-(U1-THR)*%
X118120000Y-119390000D03*
%TO.P,U1,7,DIS*%
%TO.N,unconnected-(U1-DIS-Pad7)*%
X118120000Y-116850000D03*
%TO.P,U1,8,VCC*%
%TO.N,+9V*%
X118120000Y-114310000D03*
%TD*%
D12*
%TO.P,R4,2*%
%TO.N,Net-(D4-K)*%
X100330000Y-100330000D03*
D13*
%TO.P,R4,1*%
%TO.N,Net-(D1-A)*%
X100330000Y-107950000D03*
%TD*%
D12*
%TO.P,R3,2*%
%TO.N,Net-(D4-K)*%
X123190000Y-101600000D03*
D13*
%TO.P,R3,1*%
%TO.N,Net-(U2-THR)*%
X130810000Y-101600000D03*
%TD*%
D12*
%TO.P,R2,2*%
%TO.N,Net-(D1-K)*%
X123190000Y-121920000D03*
D13*
%TO.P,R2,1*%
%TO.N,Net-(D4-A)*%
X130810000Y-121920000D03*
%TD*%
D12*
%TO.P,R1,2*%
%TO.N,Net-(D1-K)*%
X100330000Y-120650000D03*
D13*
%TO.P,R1,1*%
%TO.N,Net-(U1-THR)*%
X100330000Y-113030000D03*
%TD*%
D14*
%TO.P,J1,1,Pin_1*%
%TO.N,+9V*%
X116840000Y-104140000D03*
D15*
%TO.P,J1,2,Pin_2*%
%TO.N,GND*%
X111760000Y-104140000D03*
%TD*%
D16*
%TO.P,H4,1*%
%TO.N,N/C*%
X146050000Y-123190000D03*
%TD*%
%TO.P,H3,1*%
%TO.N,N/C*%
X83820000Y-123190000D03*
%TD*%
%TO.P,H2,1*%
%TO.N,N/C*%
X146050000Y-100330000D03*
%TD*%
%TO.P,H1,1*%
%TO.N,N/C*%
X83820000Y-100330000D03*
%TD*%
D17*
%TO.P,D6,1,K*%
%TO.N,Net-(D4-K)*%
X137160000Y-104260000D03*
D18*
%TO.P,D6,2,A*%
%TO.N,Net-(D4-A)*%
X137160000Y-101720000D03*
%TD*%
D17*
%TO.P,D5,1,K*%
%TO.N,Net-(D4-K)*%
X137160000Y-111760000D03*
D18*
%TO.P,D5,2,A*%
%TO.N,Net-(D4-A)*%
X137160000Y-109220000D03*
%TD*%
D17*
%TO.P,D4,1,K*%
%TO.N,Net-(D4-K)*%
X137160000Y-119260000D03*
D18*
%TO.P,D4,2,A*%
%TO.N,Net-(D4-A)*%
X137160000Y-116720000D03*
%TD*%
D17*
%TO.P,D3,1,K*%
%TO.N,Net-(D1-K)*%
X92710000Y-119380000D03*
D18*
%TO.P,D3,2,A*%
%TO.N,Net-(D1-A)*%
X92710000Y-116840000D03*
%TD*%
D17*
%TO.P,D2,1,K*%
%TO.N,Net-(D1-K)*%
X92710000Y-111760000D03*
D18*
%TO.P,D2,2,A*%
%TO.N,Net-(D1-A)*%
X92710000Y-109220000D03*
%TD*%
%TO.P,D1,2,A*%
%TO.N,Net-(D1-A)*%
X92710000Y-101600000D03*
D17*
%TO.P,D1,1,K*%
%TO.N,Net-(D1-K)*%
X92710000Y-104140000D03*
%TD*%
D19*
%TO.P,C2,1*%
%TO.N,Net-(U1-THR)*%
X104680000Y-110490000D03*
D20*
%TO.P,C2,2*%
%TO.N,GND*%
X106680000Y-110490000D03*
%TD*%
D21*
%TO.P,C1,2*%
%TO.N,GND*%
X123190000Y-105410000D03*
%TO.P,C1,1*%
%TO.N,Net-(U2-THR)*%
X125690000Y-105410000D03*
%TD*%
D22*
%TO.N,Net-(D1-K)*%
X92710000Y-119380000D02*
X99060000Y-119380000D01*
X99060000Y-119380000D02*
X100330000Y-120650000D01*
%TO.N,Net-(U2-THR)*%
X131945000Y-114455000D02*
X130820000Y-115580000D01*
X131945000Y-106545000D02*
X131945000Y-114455000D01*
X130810000Y-105410000D02*
X131945000Y-106545000D01*
X130810000Y-105410000D02*
X130810000Y-101600000D01*
X125690000Y-105410000D02*
X130810000Y-105410000D01*
%TO.N,+9V*%
X118120000Y-114310000D02*
X127010000Y-114310000D01*
X127010000Y-114310000D02*
X130820000Y-110500000D01*
%TO.N,Net-(U1-THR)*%
X115580000Y-116850000D02*
X118120000Y-119390000D01*
X110500000Y-116850000D02*
X115580000Y-116850000D01*
%TO.N,Net-(D4-K)*%
X132080000Y-120650000D02*
X128270000Y-120650000D01*
X132900000Y-119830000D02*
X132080000Y-120650000D01*
X132900000Y-102050000D02*
X132900000Y-119830000D01*
X133350000Y-101600000D02*
X132900000Y-102050000D01*
X133350000Y-101600000D02*
X136010000Y-104260000D01*
X132080000Y-100330000D02*
X133350000Y-101600000D01*
X128270000Y-120650000D02*
X123200000Y-115580000D01*
X123190000Y-100330000D02*
X132080000Y-100330000D01*
X100330000Y-100330000D02*
X123190000Y-100330000D01*
X123190000Y-101600000D02*
X123190000Y-100330000D01*
%TO.N,GND*%
X123200000Y-105420000D02*
X123190000Y-105410000D01*
X123200000Y-110500000D02*
X123200000Y-105420000D01*
%TO.N,Net-(U2-THR)*%
X125690000Y-110550000D02*
X125690000Y-105410000D01*
X123200000Y-113040000D02*
X125690000Y-110550000D01*
%TO.N,+9V*%
X124450000Y-114310000D02*
X124460000Y-114300000D01*
%TO.N,Net-(D4-A)*%
X133350000Y-115570000D02*
X133350000Y-113030000D01*
X133350000Y-113030000D02*
X137160000Y-109220000D01*
X136010000Y-115570000D02*
X133350000Y-115570000D01*
X137160000Y-116720000D02*
X136010000Y-115570000D01*
X133350000Y-120530000D02*
X137160000Y-116720000D01*
X133350000Y-123190000D02*
X133350000Y-120530000D01*
X133350000Y-123190000D02*
X132080000Y-123190000D01*
X139700000Y-123190000D02*
X133350000Y-123190000D01*
X140970000Y-121920000D02*
X139700000Y-123190000D01*
X132080000Y-123190000D02*
X130810000Y-121920000D01*
X140970000Y-104140000D02*
X140970000Y-121920000D01*
X138550000Y-101720000D02*
X140970000Y-104140000D01*
X137160000Y-101720000D02*
X138550000Y-101720000D01*
%TO.N,Net-(D4-K)*%
X137160000Y-111760000D02*
X139700000Y-111760000D01*
X139700000Y-111760000D02*
X139700000Y-118110000D01*
X139700000Y-106800000D02*
X139700000Y-111760000D01*
X138550000Y-119260000D02*
X137160000Y-119260000D01*
X139700000Y-118110000D02*
X138550000Y-119260000D01*
X137160000Y-104260000D02*
X139700000Y-106800000D01*
%TO.N,Net-(D4-A)*%
X136010000Y-116720000D02*
X137160000Y-116720000D01*
%TO.N,+9V*%
X116840000Y-113030000D02*
X118120000Y-114310000D01*
X116840000Y-104140000D02*
X116840000Y-113030000D01*
%TO.N,GND*%
X119380000Y-101600000D02*
X123190000Y-105410000D01*
X111760000Y-104140000D02*
X114300000Y-101600000D01*
X114300000Y-101600000D02*
X119380000Y-101600000D01*
%TO.N,+9V*%
X121930000Y-118120000D02*
X118120000Y-114310000D01*
X123200000Y-118120000D02*
X121930000Y-118120000D01*
X119380000Y-123190000D02*
X123200000Y-119370000D01*
X114300000Y-123190000D02*
X119380000Y-123190000D01*
X123200000Y-119370000D02*
X123200000Y-118120000D01*
X113040000Y-121930000D02*
X114300000Y-123190000D01*
X110500000Y-121930000D02*
X113040000Y-121930000D01*
%TO.N,Net-(D1-K)*%
X120650000Y-124460000D02*
X123190000Y-121920000D01*
X107950000Y-124460000D02*
X120650000Y-124460000D01*
X106680000Y-123190000D02*
X107950000Y-124460000D01*
X106680000Y-120650000D02*
X106680000Y-123190000D01*
X107940000Y-119390000D02*
X110500000Y-119390000D01*
X106680000Y-120650000D02*
X107940000Y-119390000D01*
X100330000Y-120650000D02*
X106680000Y-120650000D01*
%TO.N,Net-(D4-K)*%
X136010000Y-104260000D02*
X137160000Y-104260000D01*
%TO.N,GND*%
X111760000Y-105410000D02*
X111760000Y-104140000D01*
X106680000Y-110490000D02*
X111760000Y-105410000D01*
X110500000Y-114310000D02*
X106680000Y-110490000D01*
%TO.N,Net-(U1-THR)*%
X104680000Y-110490000D02*
X104680000Y-111030000D01*
X104680000Y-111030000D02*
X110500000Y-116850000D01*
X102140000Y-113030000D02*
X104680000Y-110490000D01*
X100330000Y-113030000D02*
X102140000Y-113030000D01*
%TO.N,Net-(D1-A)*%
X95250000Y-107950000D02*
X100330000Y-107950000D01*
X95250000Y-107950000D02*
X95250000Y-109220000D01*
X95250000Y-101600000D02*
X95250000Y-107950000D01*
X95250000Y-109220000D02*
X95250000Y-114300000D01*
X92710000Y-109220000D02*
X95250000Y-109220000D01*
X95250000Y-114300000D02*
X92710000Y-116840000D01*
X92710000Y-101600000D02*
X95250000Y-101600000D01*
%TO.N,Net-(D1-K)*%
X90170000Y-111760000D02*
X92710000Y-111760000D01*
X90170000Y-111760000D02*
X90170000Y-116840000D01*
X90170000Y-106680000D02*
X90170000Y-111760000D01*
X90170000Y-116840000D02*
X92710000Y-119380000D01*
X92710000Y-104140000D02*
X90170000Y-106680000D01*
%TD*%
M02*
