%TF.GenerationSoftware,KiCad,Pcbnew,7.0.9*%
%TF.CreationDate,2024-01-14T11:36:33-03:00*%
%TF.ProjectId,policeLed,706f6c69-6365-44c6-9564-2e6b69636164,rev?*%
%TF.SameCoordinates,Original*%
%TF.FileFunction,Legend,Top*%
%TF.FilePolarity,Positive*%
%FSLAX46Y46*%
G04 Gerber Fmt 4.6, Leading zero omitted, Abs format (unit mm)*
G04 Created by KiCad (PCBNEW 7.0.9) date 2024-01-14 11:36:34*
%MOMM*%
%LPD*%
G01*
G04 APERTURE LIST*
%ADD10C,0.150000*%
%ADD11C,0.120000*%
G04 APERTURE END LIST*
D10*
X113548095Y-111434819D02*
X113548095Y-112244342D01*
X113548095Y-112244342D02*
X113595714Y-112339580D01*
X113595714Y-112339580D02*
X113643333Y-112387200D01*
X113643333Y-112387200D02*
X113738571Y-112434819D01*
X113738571Y-112434819D02*
X113929047Y-112434819D01*
X113929047Y-112434819D02*
X114024285Y-112387200D01*
X114024285Y-112387200D02*
X114071904Y-112339580D01*
X114071904Y-112339580D02*
X114119523Y-112244342D01*
X114119523Y-112244342D02*
X114119523Y-111434819D01*
X115119523Y-112434819D02*
X114548095Y-112434819D01*
X114833809Y-112434819D02*
X114833809Y-111434819D01*
X114833809Y-111434819D02*
X114738571Y-111577676D01*
X114738571Y-111577676D02*
X114643333Y-111672914D01*
X114643333Y-111672914D02*
X114548095Y-111720533D01*
X103324819Y-104306666D02*
X102848628Y-104639999D01*
X103324819Y-104878094D02*
X102324819Y-104878094D01*
X102324819Y-104878094D02*
X102324819Y-104497142D01*
X102324819Y-104497142D02*
X102372438Y-104401904D01*
X102372438Y-104401904D02*
X102420057Y-104354285D01*
X102420057Y-104354285D02*
X102515295Y-104306666D01*
X102515295Y-104306666D02*
X102658152Y-104306666D01*
X102658152Y-104306666D02*
X102753390Y-104354285D01*
X102753390Y-104354285D02*
X102801009Y-104401904D01*
X102801009Y-104401904D02*
X102848628Y-104497142D01*
X102848628Y-104497142D02*
X102848628Y-104878094D01*
X102658152Y-103449523D02*
X103324819Y-103449523D01*
X102277200Y-103687618D02*
X102991485Y-103925713D01*
X102991485Y-103925713D02*
X102991485Y-103306666D01*
X126833333Y-103974819D02*
X126500000Y-103498628D01*
X126261905Y-103974819D02*
X126261905Y-102974819D01*
X126261905Y-102974819D02*
X126642857Y-102974819D01*
X126642857Y-102974819D02*
X126738095Y-103022438D01*
X126738095Y-103022438D02*
X126785714Y-103070057D01*
X126785714Y-103070057D02*
X126833333Y-103165295D01*
X126833333Y-103165295D02*
X126833333Y-103308152D01*
X126833333Y-103308152D02*
X126785714Y-103403390D01*
X126785714Y-103403390D02*
X126738095Y-103451009D01*
X126738095Y-103451009D02*
X126642857Y-103498628D01*
X126642857Y-103498628D02*
X126261905Y-103498628D01*
X127166667Y-102974819D02*
X127785714Y-102974819D01*
X127785714Y-102974819D02*
X127452381Y-103355771D01*
X127452381Y-103355771D02*
X127595238Y-103355771D01*
X127595238Y-103355771D02*
X127690476Y-103403390D01*
X127690476Y-103403390D02*
X127738095Y-103451009D01*
X127738095Y-103451009D02*
X127785714Y-103546247D01*
X127785714Y-103546247D02*
X127785714Y-103784342D01*
X127785714Y-103784342D02*
X127738095Y-103879580D01*
X127738095Y-103879580D02*
X127690476Y-103927200D01*
X127690476Y-103927200D02*
X127595238Y-103974819D01*
X127595238Y-103974819D02*
X127309524Y-103974819D01*
X127309524Y-103974819D02*
X127214286Y-103927200D01*
X127214286Y-103927200D02*
X127166667Y-103879580D01*
X126833333Y-124294819D02*
X126500000Y-123818628D01*
X126261905Y-124294819D02*
X126261905Y-123294819D01*
X126261905Y-123294819D02*
X126642857Y-123294819D01*
X126642857Y-123294819D02*
X126738095Y-123342438D01*
X126738095Y-123342438D02*
X126785714Y-123390057D01*
X126785714Y-123390057D02*
X126833333Y-123485295D01*
X126833333Y-123485295D02*
X126833333Y-123628152D01*
X126833333Y-123628152D02*
X126785714Y-123723390D01*
X126785714Y-123723390D02*
X126738095Y-123771009D01*
X126738095Y-123771009D02*
X126642857Y-123818628D01*
X126642857Y-123818628D02*
X126261905Y-123818628D01*
X127214286Y-123390057D02*
X127261905Y-123342438D01*
X127261905Y-123342438D02*
X127357143Y-123294819D01*
X127357143Y-123294819D02*
X127595238Y-123294819D01*
X127595238Y-123294819D02*
X127690476Y-123342438D01*
X127690476Y-123342438D02*
X127738095Y-123390057D01*
X127738095Y-123390057D02*
X127785714Y-123485295D01*
X127785714Y-123485295D02*
X127785714Y-123580533D01*
X127785714Y-123580533D02*
X127738095Y-123723390D01*
X127738095Y-123723390D02*
X127166667Y-124294819D01*
X127166667Y-124294819D02*
X127785714Y-124294819D01*
X102704819Y-117006666D02*
X102228628Y-117339999D01*
X102704819Y-117578094D02*
X101704819Y-117578094D01*
X101704819Y-117578094D02*
X101704819Y-117197142D01*
X101704819Y-117197142D02*
X101752438Y-117101904D01*
X101752438Y-117101904D02*
X101800057Y-117054285D01*
X101800057Y-117054285D02*
X101895295Y-117006666D01*
X101895295Y-117006666D02*
X102038152Y-117006666D01*
X102038152Y-117006666D02*
X102133390Y-117054285D01*
X102133390Y-117054285D02*
X102181009Y-117101904D01*
X102181009Y-117101904D02*
X102228628Y-117197142D01*
X102228628Y-117197142D02*
X102228628Y-117578094D01*
X102704819Y-116054285D02*
X102704819Y-116625713D01*
X102704819Y-116339999D02*
X101704819Y-116339999D01*
X101704819Y-116339999D02*
X101847676Y-116435237D01*
X101847676Y-116435237D02*
X101942914Y-116530475D01*
X101942914Y-116530475D02*
X101990533Y-116625713D01*
X113966666Y-106134819D02*
X113966666Y-106849104D01*
X113966666Y-106849104D02*
X113919047Y-106991961D01*
X113919047Y-106991961D02*
X113823809Y-107087200D01*
X113823809Y-107087200D02*
X113680952Y-107134819D01*
X113680952Y-107134819D02*
X113585714Y-107134819D01*
X114966666Y-107134819D02*
X114395238Y-107134819D01*
X114680952Y-107134819D02*
X114680952Y-106134819D01*
X114680952Y-106134819D02*
X114585714Y-106277676D01*
X114585714Y-106277676D02*
X114490476Y-106372914D01*
X114490476Y-106372914D02*
X114395238Y-106420533D01*
X145288095Y-120144819D02*
X145288095Y-119144819D01*
X145288095Y-119621009D02*
X145859523Y-119621009D01*
X145859523Y-120144819D02*
X145859523Y-119144819D01*
X146764285Y-119478152D02*
X146764285Y-120144819D01*
X146526190Y-119097200D02*
X146288095Y-119811485D01*
X146288095Y-119811485D02*
X146907142Y-119811485D01*
X83058095Y-120144819D02*
X83058095Y-119144819D01*
X83058095Y-119621009D02*
X83629523Y-119621009D01*
X83629523Y-120144819D02*
X83629523Y-119144819D01*
X84010476Y-119144819D02*
X84629523Y-119144819D01*
X84629523Y-119144819D02*
X84296190Y-119525771D01*
X84296190Y-119525771D02*
X84439047Y-119525771D01*
X84439047Y-119525771D02*
X84534285Y-119573390D01*
X84534285Y-119573390D02*
X84581904Y-119621009D01*
X84581904Y-119621009D02*
X84629523Y-119716247D01*
X84629523Y-119716247D02*
X84629523Y-119954342D01*
X84629523Y-119954342D02*
X84581904Y-120049580D01*
X84581904Y-120049580D02*
X84534285Y-120097200D01*
X84534285Y-120097200D02*
X84439047Y-120144819D01*
X84439047Y-120144819D02*
X84153333Y-120144819D01*
X84153333Y-120144819D02*
X84058095Y-120097200D01*
X84058095Y-120097200D02*
X84010476Y-120049580D01*
X145288095Y-104594819D02*
X145288095Y-103594819D01*
X145288095Y-104071009D02*
X145859523Y-104071009D01*
X145859523Y-104594819D02*
X145859523Y-103594819D01*
X146288095Y-103690057D02*
X146335714Y-103642438D01*
X146335714Y-103642438D02*
X146430952Y-103594819D01*
X146430952Y-103594819D02*
X146669047Y-103594819D01*
X146669047Y-103594819D02*
X146764285Y-103642438D01*
X146764285Y-103642438D02*
X146811904Y-103690057D01*
X146811904Y-103690057D02*
X146859523Y-103785295D01*
X146859523Y-103785295D02*
X146859523Y-103880533D01*
X146859523Y-103880533D02*
X146811904Y-104023390D01*
X146811904Y-104023390D02*
X146240476Y-104594819D01*
X146240476Y-104594819D02*
X146859523Y-104594819D01*
X83058095Y-104594819D02*
X83058095Y-103594819D01*
X83058095Y-104071009D02*
X83629523Y-104071009D01*
X83629523Y-104594819D02*
X83629523Y-103594819D01*
X84629523Y-104594819D02*
X84058095Y-104594819D01*
X84343809Y-104594819D02*
X84343809Y-103594819D01*
X84343809Y-103594819D02*
X84248571Y-103737676D01*
X84248571Y-103737676D02*
X84153333Y-103832914D01*
X84153333Y-103832914D02*
X84058095Y-103880533D01*
X133654819Y-103728094D02*
X132654819Y-103728094D01*
X132654819Y-103728094D02*
X132654819Y-103489999D01*
X132654819Y-103489999D02*
X132702438Y-103347142D01*
X132702438Y-103347142D02*
X132797676Y-103251904D01*
X132797676Y-103251904D02*
X132892914Y-103204285D01*
X132892914Y-103204285D02*
X133083390Y-103156666D01*
X133083390Y-103156666D02*
X133226247Y-103156666D01*
X133226247Y-103156666D02*
X133416723Y-103204285D01*
X133416723Y-103204285D02*
X133511961Y-103251904D01*
X133511961Y-103251904D02*
X133607200Y-103347142D01*
X133607200Y-103347142D02*
X133654819Y-103489999D01*
X133654819Y-103489999D02*
X133654819Y-103728094D01*
X132654819Y-102299523D02*
X132654819Y-102489999D01*
X132654819Y-102489999D02*
X132702438Y-102585237D01*
X132702438Y-102585237D02*
X132750057Y-102632856D01*
X132750057Y-102632856D02*
X132892914Y-102728094D01*
X132892914Y-102728094D02*
X133083390Y-102775713D01*
X133083390Y-102775713D02*
X133464342Y-102775713D01*
X133464342Y-102775713D02*
X133559580Y-102728094D01*
X133559580Y-102728094D02*
X133607200Y-102680475D01*
X133607200Y-102680475D02*
X133654819Y-102585237D01*
X133654819Y-102585237D02*
X133654819Y-102394761D01*
X133654819Y-102394761D02*
X133607200Y-102299523D01*
X133607200Y-102299523D02*
X133559580Y-102251904D01*
X133559580Y-102251904D02*
X133464342Y-102204285D01*
X133464342Y-102204285D02*
X133226247Y-102204285D01*
X133226247Y-102204285D02*
X133131009Y-102251904D01*
X133131009Y-102251904D02*
X133083390Y-102299523D01*
X133083390Y-102299523D02*
X133035771Y-102394761D01*
X133035771Y-102394761D02*
X133035771Y-102585237D01*
X133035771Y-102585237D02*
X133083390Y-102680475D01*
X133083390Y-102680475D02*
X133131009Y-102728094D01*
X133131009Y-102728094D02*
X133226247Y-102775713D01*
X133654819Y-111228094D02*
X132654819Y-111228094D01*
X132654819Y-111228094D02*
X132654819Y-110989999D01*
X132654819Y-110989999D02*
X132702438Y-110847142D01*
X132702438Y-110847142D02*
X132797676Y-110751904D01*
X132797676Y-110751904D02*
X132892914Y-110704285D01*
X132892914Y-110704285D02*
X133083390Y-110656666D01*
X133083390Y-110656666D02*
X133226247Y-110656666D01*
X133226247Y-110656666D02*
X133416723Y-110704285D01*
X133416723Y-110704285D02*
X133511961Y-110751904D01*
X133511961Y-110751904D02*
X133607200Y-110847142D01*
X133607200Y-110847142D02*
X133654819Y-110989999D01*
X133654819Y-110989999D02*
X133654819Y-111228094D01*
X132654819Y-109751904D02*
X132654819Y-110228094D01*
X132654819Y-110228094D02*
X133131009Y-110275713D01*
X133131009Y-110275713D02*
X133083390Y-110228094D01*
X133083390Y-110228094D02*
X133035771Y-110132856D01*
X133035771Y-110132856D02*
X133035771Y-109894761D01*
X133035771Y-109894761D02*
X133083390Y-109799523D01*
X133083390Y-109799523D02*
X133131009Y-109751904D01*
X133131009Y-109751904D02*
X133226247Y-109704285D01*
X133226247Y-109704285D02*
X133464342Y-109704285D01*
X133464342Y-109704285D02*
X133559580Y-109751904D01*
X133559580Y-109751904D02*
X133607200Y-109799523D01*
X133607200Y-109799523D02*
X133654819Y-109894761D01*
X133654819Y-109894761D02*
X133654819Y-110132856D01*
X133654819Y-110132856D02*
X133607200Y-110228094D01*
X133607200Y-110228094D02*
X133559580Y-110275713D01*
X133654819Y-118728094D02*
X132654819Y-118728094D01*
X132654819Y-118728094D02*
X132654819Y-118489999D01*
X132654819Y-118489999D02*
X132702438Y-118347142D01*
X132702438Y-118347142D02*
X132797676Y-118251904D01*
X132797676Y-118251904D02*
X132892914Y-118204285D01*
X132892914Y-118204285D02*
X133083390Y-118156666D01*
X133083390Y-118156666D02*
X133226247Y-118156666D01*
X133226247Y-118156666D02*
X133416723Y-118204285D01*
X133416723Y-118204285D02*
X133511961Y-118251904D01*
X133511961Y-118251904D02*
X133607200Y-118347142D01*
X133607200Y-118347142D02*
X133654819Y-118489999D01*
X133654819Y-118489999D02*
X133654819Y-118728094D01*
X132988152Y-117299523D02*
X133654819Y-117299523D01*
X132607200Y-117537618D02*
X133321485Y-117775713D01*
X133321485Y-117775713D02*
X133321485Y-117156666D01*
X89204819Y-118848094D02*
X88204819Y-118848094D01*
X88204819Y-118848094D02*
X88204819Y-118609999D01*
X88204819Y-118609999D02*
X88252438Y-118467142D01*
X88252438Y-118467142D02*
X88347676Y-118371904D01*
X88347676Y-118371904D02*
X88442914Y-118324285D01*
X88442914Y-118324285D02*
X88633390Y-118276666D01*
X88633390Y-118276666D02*
X88776247Y-118276666D01*
X88776247Y-118276666D02*
X88966723Y-118324285D01*
X88966723Y-118324285D02*
X89061961Y-118371904D01*
X89061961Y-118371904D02*
X89157200Y-118467142D01*
X89157200Y-118467142D02*
X89204819Y-118609999D01*
X89204819Y-118609999D02*
X89204819Y-118848094D01*
X88204819Y-117943332D02*
X88204819Y-117324285D01*
X88204819Y-117324285D02*
X88585771Y-117657618D01*
X88585771Y-117657618D02*
X88585771Y-117514761D01*
X88585771Y-117514761D02*
X88633390Y-117419523D01*
X88633390Y-117419523D02*
X88681009Y-117371904D01*
X88681009Y-117371904D02*
X88776247Y-117324285D01*
X88776247Y-117324285D02*
X89014342Y-117324285D01*
X89014342Y-117324285D02*
X89109580Y-117371904D01*
X89109580Y-117371904D02*
X89157200Y-117419523D01*
X89157200Y-117419523D02*
X89204819Y-117514761D01*
X89204819Y-117514761D02*
X89204819Y-117800475D01*
X89204819Y-117800475D02*
X89157200Y-117895713D01*
X89157200Y-117895713D02*
X89109580Y-117943332D01*
X89204819Y-111208094D02*
X88204819Y-111208094D01*
X88204819Y-111208094D02*
X88204819Y-110969999D01*
X88204819Y-110969999D02*
X88252438Y-110827142D01*
X88252438Y-110827142D02*
X88347676Y-110731904D01*
X88347676Y-110731904D02*
X88442914Y-110684285D01*
X88442914Y-110684285D02*
X88633390Y-110636666D01*
X88633390Y-110636666D02*
X88776247Y-110636666D01*
X88776247Y-110636666D02*
X88966723Y-110684285D01*
X88966723Y-110684285D02*
X89061961Y-110731904D01*
X89061961Y-110731904D02*
X89157200Y-110827142D01*
X89157200Y-110827142D02*
X89204819Y-110969999D01*
X89204819Y-110969999D02*
X89204819Y-111208094D01*
X88300057Y-110255713D02*
X88252438Y-110208094D01*
X88252438Y-110208094D02*
X88204819Y-110112856D01*
X88204819Y-110112856D02*
X88204819Y-109874761D01*
X88204819Y-109874761D02*
X88252438Y-109779523D01*
X88252438Y-109779523D02*
X88300057Y-109731904D01*
X88300057Y-109731904D02*
X88395295Y-109684285D01*
X88395295Y-109684285D02*
X88490533Y-109684285D01*
X88490533Y-109684285D02*
X88633390Y-109731904D01*
X88633390Y-109731904D02*
X89204819Y-110303332D01*
X89204819Y-110303332D02*
X89204819Y-109684285D01*
X89204819Y-103608094D02*
X88204819Y-103608094D01*
X88204819Y-103608094D02*
X88204819Y-103369999D01*
X88204819Y-103369999D02*
X88252438Y-103227142D01*
X88252438Y-103227142D02*
X88347676Y-103131904D01*
X88347676Y-103131904D02*
X88442914Y-103084285D01*
X88442914Y-103084285D02*
X88633390Y-103036666D01*
X88633390Y-103036666D02*
X88776247Y-103036666D01*
X88776247Y-103036666D02*
X88966723Y-103084285D01*
X88966723Y-103084285D02*
X89061961Y-103131904D01*
X89061961Y-103131904D02*
X89157200Y-103227142D01*
X89157200Y-103227142D02*
X89204819Y-103369999D01*
X89204819Y-103369999D02*
X89204819Y-103608094D01*
X89204819Y-102084285D02*
X89204819Y-102655713D01*
X89204819Y-102369999D02*
X88204819Y-102369999D01*
X88204819Y-102369999D02*
X88347676Y-102465237D01*
X88347676Y-102465237D02*
X88442914Y-102560475D01*
X88442914Y-102560475D02*
X88490533Y-102655713D01*
X105513333Y-107599580D02*
X105465714Y-107647200D01*
X105465714Y-107647200D02*
X105322857Y-107694819D01*
X105322857Y-107694819D02*
X105227619Y-107694819D01*
X105227619Y-107694819D02*
X105084762Y-107647200D01*
X105084762Y-107647200D02*
X104989524Y-107551961D01*
X104989524Y-107551961D02*
X104941905Y-107456723D01*
X104941905Y-107456723D02*
X104894286Y-107266247D01*
X104894286Y-107266247D02*
X104894286Y-107123390D01*
X104894286Y-107123390D02*
X104941905Y-106932914D01*
X104941905Y-106932914D02*
X104989524Y-106837676D01*
X104989524Y-106837676D02*
X105084762Y-106742438D01*
X105084762Y-106742438D02*
X105227619Y-106694819D01*
X105227619Y-106694819D02*
X105322857Y-106694819D01*
X105322857Y-106694819D02*
X105465714Y-106742438D01*
X105465714Y-106742438D02*
X105513333Y-106790057D01*
X105894286Y-106790057D02*
X105941905Y-106742438D01*
X105941905Y-106742438D02*
X106037143Y-106694819D01*
X106037143Y-106694819D02*
X106275238Y-106694819D01*
X106275238Y-106694819D02*
X106370476Y-106742438D01*
X106370476Y-106742438D02*
X106418095Y-106790057D01*
X106418095Y-106790057D02*
X106465714Y-106885295D01*
X106465714Y-106885295D02*
X106465714Y-106980533D01*
X106465714Y-106980533D02*
X106418095Y-107123390D01*
X106418095Y-107123390D02*
X105846667Y-107694819D01*
X105846667Y-107694819D02*
X106465714Y-107694819D01*
X124273333Y-108069580D02*
X124225714Y-108117200D01*
X124225714Y-108117200D02*
X124082857Y-108164819D01*
X124082857Y-108164819D02*
X123987619Y-108164819D01*
X123987619Y-108164819D02*
X123844762Y-108117200D01*
X123844762Y-108117200D02*
X123749524Y-108021961D01*
X123749524Y-108021961D02*
X123701905Y-107926723D01*
X123701905Y-107926723D02*
X123654286Y-107736247D01*
X123654286Y-107736247D02*
X123654286Y-107593390D01*
X123654286Y-107593390D02*
X123701905Y-107402914D01*
X123701905Y-107402914D02*
X123749524Y-107307676D01*
X123749524Y-107307676D02*
X123844762Y-107212438D01*
X123844762Y-107212438D02*
X123987619Y-107164819D01*
X123987619Y-107164819D02*
X124082857Y-107164819D01*
X124082857Y-107164819D02*
X124225714Y-107212438D01*
X124225714Y-107212438D02*
X124273333Y-107260057D01*
X125225714Y-108164819D02*
X124654286Y-108164819D01*
X124940000Y-108164819D02*
X124940000Y-107164819D01*
X124940000Y-107164819D02*
X124844762Y-107307676D01*
X124844762Y-107307676D02*
X124749524Y-107402914D01*
X124749524Y-107402914D02*
X124654286Y-107450533D01*
D11*
%TO.C,U2*%
X129660000Y-109170000D02*
X128010000Y-109170000D01*
X124360000Y-109170000D02*
X124360000Y-119450000D01*
X129660000Y-119450000D02*
X129660000Y-109170000D01*
X126010000Y-109170000D02*
X124360000Y-109170000D01*
X124360000Y-119450000D02*
X129660000Y-119450000D01*
X126010000Y-109170000D02*
G75*
G03*
X128010000Y-109170000I1000000J0D01*
G01*
%TO.C,U1*%
X116960000Y-112980000D02*
X115310000Y-112980000D01*
X111660000Y-112980000D02*
X111660000Y-123260000D01*
X116960000Y-123260000D02*
X116960000Y-112980000D01*
X113310000Y-112980000D02*
X111660000Y-112980000D01*
X111660000Y-123260000D02*
X116960000Y-123260000D01*
X113310000Y-112980000D02*
G75*
G03*
X115310000Y-112980000I1000000J0D01*
G01*
%TO.C,R4*%
X100330000Y-107010000D02*
X100330000Y-106060000D01*
X99410000Y-106060000D02*
X101250000Y-106060000D01*
X100330000Y-101270000D02*
X100330000Y-102220000D01*
X101250000Y-106060000D02*
X101250000Y-102220000D01*
X99410000Y-102220000D02*
X99410000Y-106060000D01*
X101250000Y-102220000D02*
X99410000Y-102220000D01*
%TO.C,R3*%
X129870000Y-101600000D02*
X128920000Y-101600000D01*
X128920000Y-102520000D02*
X128920000Y-100680000D01*
X124130000Y-101600000D02*
X125080000Y-101600000D01*
X128920000Y-100680000D02*
X125080000Y-100680000D01*
X125080000Y-102520000D02*
X128920000Y-102520000D01*
X125080000Y-100680000D02*
X125080000Y-102520000D01*
%TO.C,R2*%
X129870000Y-121920000D02*
X128920000Y-121920000D01*
X128920000Y-122840000D02*
X128920000Y-121000000D01*
X124130000Y-121920000D02*
X125080000Y-121920000D01*
X128920000Y-121000000D02*
X125080000Y-121000000D01*
X125080000Y-122840000D02*
X128920000Y-122840000D01*
X125080000Y-121000000D02*
X125080000Y-122840000D01*
%TO.C,R1*%
X100330000Y-113970000D02*
X100330000Y-114920000D01*
X101250000Y-114920000D02*
X99410000Y-114920000D01*
X100330000Y-119710000D02*
X100330000Y-118760000D01*
X99410000Y-114920000D02*
X99410000Y-118760000D01*
X101250000Y-118760000D02*
X101250000Y-114920000D01*
X99410000Y-118760000D02*
X101250000Y-118760000D01*
%TO.C,J1*%
X119380000Y-107950000D02*
X119380000Y-100330000D01*
X109220000Y-100330000D02*
X109220000Y-107950000D01*
X109220000Y-101600000D02*
X119380000Y-101600000D01*
X119380000Y-100330000D02*
X109220000Y-100330000D01*
X109220000Y-107950000D02*
X119380000Y-107950000D01*
%TO.C,D6*%
X135615000Y-105550000D02*
X138705000Y-105550000D01*
X138704830Y-105550000D02*
G75*
G03*
X137159538Y-100000000I-1544830J2560000D01*
G01*
X137160462Y-100000001D02*
G75*
G03*
X135615170Y-105549999I-462J-2989999D01*
G01*
X139660000Y-102990000D02*
G75*
G03*
X139660000Y-102990000I-2500000J0D01*
G01*
%TO.C,D5*%
X135615000Y-113050000D02*
X138705000Y-113050000D01*
X138704830Y-113050000D02*
G75*
G03*
X137159538Y-107500000I-1544830J2560000D01*
G01*
X137160462Y-107500001D02*
G75*
G03*
X135615170Y-113049999I-462J-2989999D01*
G01*
X139660000Y-110490000D02*
G75*
G03*
X139660000Y-110490000I-2500000J0D01*
G01*
%TO.C,D4*%
X135615000Y-120550000D02*
X138705000Y-120550000D01*
X138704830Y-120550000D02*
G75*
G03*
X137159538Y-115000000I-1544830J2560000D01*
G01*
X137160462Y-115000001D02*
G75*
G03*
X135615170Y-120549999I-462J-2989999D01*
G01*
X139660000Y-117990000D02*
G75*
G03*
X139660000Y-117990000I-2500000J0D01*
G01*
%TO.C,D3*%
X91165000Y-120670000D02*
X94255000Y-120670000D01*
X94254830Y-120670000D02*
G75*
G03*
X92709538Y-115120000I-1544830J2560000D01*
G01*
X92710462Y-115120001D02*
G75*
G03*
X91165170Y-120669999I-462J-2989999D01*
G01*
X95210000Y-118110000D02*
G75*
G03*
X95210000Y-118110000I-2500000J0D01*
G01*
%TO.C,D2*%
X91165000Y-113050000D02*
X94255000Y-113050000D01*
X94254830Y-113050000D02*
G75*
G03*
X92709538Y-107500000I-1544830J2560000D01*
G01*
X92710462Y-107500001D02*
G75*
G03*
X91165170Y-113049999I-462J-2989999D01*
G01*
X95210000Y-110490000D02*
G75*
G03*
X95210000Y-110490000I-2500000J0D01*
G01*
%TO.C,D1*%
X95210000Y-102870000D02*
G75*
G03*
X95210000Y-102870000I-2500000J0D01*
G01*
X92710462Y-99880001D02*
G75*
G03*
X91165170Y-105429999I-462J-2989999D01*
G01*
X94254830Y-105430000D02*
G75*
G03*
X92709538Y-99880000I-1544830J2560000D01*
G01*
X91165000Y-105430000D02*
X94255000Y-105430000D01*
%TO.C,C2*%
X106000000Y-111330000D02*
X106000000Y-112546000D01*
X107281000Y-109139000D02*
X107281000Y-109650000D01*
X107121000Y-108974000D02*
X107121000Y-109650000D01*
X107441000Y-111330000D02*
X107441000Y-111632000D01*
X107241000Y-109094000D02*
X107241000Y-109650000D01*
X107161000Y-109012000D02*
X107161000Y-109650000D01*
X107121000Y-111330000D02*
X107121000Y-112006000D01*
X105960000Y-111330000D02*
X105960000Y-112552000D01*
X106601000Y-111330000D02*
X106601000Y-112360000D01*
X106280000Y-111330000D02*
X106280000Y-112484000D01*
X106120000Y-108456000D02*
X106120000Y-109650000D01*
X107721000Y-109953000D02*
X107721000Y-111027000D01*
X107761000Y-110120000D02*
X107761000Y-110860000D01*
X105760000Y-108411000D02*
X105760000Y-112569000D01*
X105880000Y-108419000D02*
X105880000Y-109650000D01*
X106441000Y-108550000D02*
X106441000Y-109650000D01*
X107561000Y-109550000D02*
X107561000Y-111430000D01*
X107201000Y-109052000D02*
X107201000Y-109650000D01*
X106921000Y-108810000D02*
X106921000Y-109650000D01*
X106360000Y-108522000D02*
X106360000Y-109650000D01*
X106441000Y-111330000D02*
X106441000Y-112430000D01*
X106401000Y-108536000D02*
X106401000Y-109650000D01*
X105800000Y-108413000D02*
X105800000Y-112567000D01*
X105720000Y-108410000D02*
X105720000Y-112570000D01*
X105920000Y-108423000D02*
X105920000Y-109650000D01*
X106641000Y-108639000D02*
X106641000Y-109650000D01*
X107161000Y-111330000D02*
X107161000Y-111968000D01*
X106601000Y-108620000D02*
X106601000Y-109650000D01*
X106160000Y-111330000D02*
X106160000Y-112515000D01*
X106761000Y-111330000D02*
X106761000Y-112275000D01*
X107361000Y-109236000D02*
X107361000Y-109650000D01*
X106841000Y-108755000D02*
X106841000Y-109650000D01*
X106881000Y-111330000D02*
X106881000Y-112198000D01*
X106040000Y-111330000D02*
X106040000Y-112540000D01*
X106240000Y-111330000D02*
X106240000Y-112495000D01*
X106721000Y-111330000D02*
X106721000Y-112298000D01*
X106200000Y-111330000D02*
X106200000Y-112506000D01*
X106320000Y-111330000D02*
X106320000Y-112472000D01*
X107201000Y-111330000D02*
X107201000Y-111928000D01*
X106401000Y-111330000D02*
X106401000Y-112444000D01*
X106521000Y-111330000D02*
X106521000Y-112397000D01*
X107401000Y-111330000D02*
X107401000Y-111690000D01*
X107321000Y-109186000D02*
X107321000Y-109650000D01*
X107081000Y-108938000D02*
X107081000Y-109650000D01*
X107041000Y-111330000D02*
X107041000Y-112077000D01*
X107361000Y-111330000D02*
X107361000Y-111744000D01*
X107521000Y-109477000D02*
X107521000Y-111503000D01*
X107001000Y-108871000D02*
X107001000Y-109650000D01*
X106801000Y-111330000D02*
X106801000Y-112250000D01*
X106801000Y-108730000D02*
X106801000Y-109650000D01*
X107401000Y-109290000D02*
X107401000Y-109650000D01*
X106681000Y-108660000D02*
X106681000Y-109650000D01*
X106561000Y-108601000D02*
X106561000Y-109650000D01*
X106841000Y-111330000D02*
X106841000Y-112225000D01*
X106481000Y-108566000D02*
X106481000Y-109650000D01*
X107321000Y-111330000D02*
X107321000Y-111794000D01*
X106120000Y-111330000D02*
X106120000Y-112524000D01*
X106921000Y-111330000D02*
X106921000Y-112170000D01*
X103410199Y-109295000D02*
X103810199Y-109295000D01*
X106000000Y-108434000D02*
X106000000Y-109650000D01*
X107641000Y-109722000D02*
X107641000Y-111258000D01*
X106320000Y-108508000D02*
X106320000Y-109650000D01*
X103610199Y-109095000D02*
X103610199Y-109495000D01*
X106641000Y-111330000D02*
X106641000Y-112341000D01*
X106721000Y-108682000D02*
X106721000Y-109650000D01*
X106080000Y-108448000D02*
X106080000Y-109650000D01*
X107241000Y-111330000D02*
X107241000Y-111886000D01*
X106761000Y-108705000D02*
X106761000Y-109650000D01*
X107041000Y-108903000D02*
X107041000Y-109650000D01*
X106481000Y-111330000D02*
X106481000Y-112414000D01*
X107001000Y-111330000D02*
X107001000Y-112109000D01*
X106280000Y-108496000D02*
X106280000Y-109650000D01*
X106080000Y-111330000D02*
X106080000Y-112532000D01*
X106521000Y-108583000D02*
X106521000Y-109650000D01*
X105840000Y-108416000D02*
X105840000Y-112564000D01*
X106360000Y-111330000D02*
X106360000Y-112458000D01*
X106681000Y-111330000D02*
X106681000Y-112320000D01*
X106961000Y-111330000D02*
X106961000Y-112140000D01*
X107481000Y-111330000D02*
X107481000Y-111570000D01*
X107481000Y-109410000D02*
X107481000Y-109650000D01*
X106561000Y-111330000D02*
X106561000Y-112379000D01*
X105680000Y-108410000D02*
X105680000Y-112570000D01*
X106881000Y-108782000D02*
X106881000Y-109650000D01*
X107681000Y-109826000D02*
X107681000Y-111154000D01*
X105920000Y-111330000D02*
X105920000Y-112557000D01*
X107081000Y-111330000D02*
X107081000Y-112042000D01*
X107601000Y-109631000D02*
X107601000Y-111349000D01*
X105880000Y-111330000D02*
X105880000Y-112561000D01*
X106200000Y-108474000D02*
X106200000Y-109650000D01*
X107281000Y-111330000D02*
X107281000Y-111841000D01*
X106040000Y-108440000D02*
X106040000Y-109650000D01*
X107441000Y-109348000D02*
X107441000Y-109650000D01*
X106160000Y-108465000D02*
X106160000Y-109650000D01*
X106961000Y-108840000D02*
X106961000Y-109650000D01*
X106240000Y-108485000D02*
X106240000Y-109650000D01*
X105960000Y-108428000D02*
X105960000Y-109650000D01*
X107800000Y-110490000D02*
G75*
G03*
X107800000Y-110490000I-2120000J0D01*
G01*
%TO.C,C1*%
X126260000Y-106580000D02*
X126260000Y-106335000D01*
X122620000Y-106580000D02*
X122620000Y-106335000D01*
X122620000Y-104485000D02*
X122620000Y-104240000D01*
X126260000Y-104485000D02*
X126260000Y-104240000D01*
X126260000Y-104240000D02*
X122620000Y-104240000D01*
X126260000Y-106580000D02*
X122620000Y-106580000D01*
%TD*%
M02*
