%TF.GenerationSoftware,KiCad,Pcbnew,7.0.9*%
%TF.CreationDate,2024-01-14T11:36:33-03:00*%
%TF.ProjectId,policeLed,706f6c69-6365-44c6-9564-2e6b69636164,rev?*%
%TF.SameCoordinates,Original*%
%TF.FileFunction,Copper,L2,Bot*%
%TF.FilePolarity,Positive*%
%FSLAX46Y46*%
G04 Gerber Fmt 4.6, Leading zero omitted, Abs format (unit mm)*
G04 Created by KiCad (PCBNEW 7.0.9) date 2024-01-14 11:36:33*
%MOMM*%
%LPD*%
G01*
G04 APERTURE LIST*
%TA.AperFunction,ComponentPad*%
%ADD10R,1.600000X1.600000*%
%TD*%
%TA.AperFunction,ComponentPad*%
%ADD11O,1.600000X1.600000*%
%TD*%
%TA.AperFunction,ComponentPad*%
%ADD12O,1.400000X1.400000*%
%TD*%
%TA.AperFunction,ComponentPad*%
%ADD13C,1.400000*%
%TD*%
%TA.AperFunction,ComponentPad*%
%ADD14R,3.000000X3.000000*%
%TD*%
%TA.AperFunction,ComponentPad*%
%ADD15C,3.000000*%
%TD*%
%TA.AperFunction,ComponentPad*%
%ADD16C,5.000000*%
%TD*%
%TA.AperFunction,ComponentPad*%
%ADD17R,1.800000X1.800000*%
%TD*%
%TA.AperFunction,ComponentPad*%
%ADD18C,1.800000*%
%TD*%
%TA.AperFunction,ComponentPad*%
%ADD19R,1.200000X1.200000*%
%TD*%
%TA.AperFunction,ComponentPad*%
%ADD20C,1.200000*%
%TD*%
%TA.AperFunction,ComponentPad*%
%ADD21C,1.600000*%
%TD*%
G04 APERTURE END LIST*
D10*
%TO.P,U2,1,GND*%
%TO.N,GND*%
X123200000Y-110500000D03*
D11*
%TO.P,U2,2,TR*%
%TO.N,Net-(U2-THR)*%
X123200000Y-113040000D03*
%TO.P,U2,3,Q*%
%TO.N,Net-(D4-K)*%
X123200000Y-115580000D03*
%TO.P,U2,4,R*%
%TO.N,+9V*%
X123200000Y-118120000D03*
%TO.P,U2,5,CV*%
%TO.N,unconnected-(U2-CV-Pad5)*%
X130820000Y-118120000D03*
%TO.P,U2,6,THR*%
%TO.N,Net-(U2-THR)*%
X130820000Y-115580000D03*
%TO.P,U2,7,DIS*%
%TO.N,unconnected-(U2-DIS-Pad7)*%
X130820000Y-113040000D03*
%TO.P,U2,8,VCC*%
%TO.N,+9V*%
X130820000Y-110500000D03*
%TD*%
D10*
%TO.P,U1,1,GND*%
%TO.N,GND*%
X110500000Y-114310000D03*
D11*
%TO.P,U1,2,TR*%
%TO.N,Net-(U1-THR)*%
X110500000Y-116850000D03*
%TO.P,U1,3,Q*%
%TO.N,Net-(D1-K)*%
X110500000Y-119390000D03*
%TO.P,U1,4,R*%
%TO.N,+9V*%
X110500000Y-121930000D03*
%TO.P,U1,5,CV*%
%TO.N,unconnected-(U1-CV-Pad5)*%
X118120000Y-121930000D03*
%TO.P,U1,6,THR*%
%TO.N,Net-(U1-THR)*%
X118120000Y-119390000D03*
%TO.P,U1,7,DIS*%
%TO.N,unconnected-(U1-DIS-Pad7)*%
X118120000Y-116850000D03*
%TO.P,U1,8,VCC*%
%TO.N,+9V*%
X118120000Y-114310000D03*
%TD*%
D12*
%TO.P,R4,2*%
%TO.N,Net-(D4-K)*%
X100330000Y-100330000D03*
D13*
%TO.P,R4,1*%
%TO.N,Net-(D1-A)*%
X100330000Y-107950000D03*
%TD*%
D12*
%TO.P,R3,2*%
%TO.N,Net-(D4-K)*%
X123190000Y-101600000D03*
D13*
%TO.P,R3,1*%
%TO.N,Net-(U2-THR)*%
X130810000Y-101600000D03*
%TD*%
D12*
%TO.P,R2,2*%
%TO.N,Net-(D1-K)*%
X123190000Y-121920000D03*
D13*
%TO.P,R2,1*%
%TO.N,Net-(D4-A)*%
X130810000Y-121920000D03*
%TD*%
D12*
%TO.P,R1,2*%
%TO.N,Net-(D1-K)*%
X100330000Y-120650000D03*
D13*
%TO.P,R1,1*%
%TO.N,Net-(U1-THR)*%
X100330000Y-113030000D03*
%TD*%
D14*
%TO.P,J1,1,Pin_1*%
%TO.N,+9V*%
X116840000Y-104140000D03*
D15*
%TO.P,J1,2,Pin_2*%
%TO.N,GND*%
X111760000Y-104140000D03*
%TD*%
D16*
%TO.P,H4,1*%
%TO.N,N/C*%
X146050000Y-123190000D03*
%TD*%
%TO.P,H3,1*%
%TO.N,N/C*%
X83820000Y-123190000D03*
%TD*%
%TO.P,H2,1*%
%TO.N,N/C*%
X146050000Y-100330000D03*
%TD*%
%TO.P,H1,1*%
%TO.N,N/C*%
X83820000Y-100330000D03*
%TD*%
D17*
%TO.P,D6,1,K*%
%TO.N,Net-(D4-K)*%
X137160000Y-104260000D03*
D18*
%TO.P,D6,2,A*%
%TO.N,Net-(D4-A)*%
X137160000Y-101720000D03*
%TD*%
D17*
%TO.P,D5,1,K*%
%TO.N,Net-(D4-K)*%
X137160000Y-111760000D03*
D18*
%TO.P,D5,2,A*%
%TO.N,Net-(D4-A)*%
X137160000Y-109220000D03*
%TD*%
D17*
%TO.P,D4,1,K*%
%TO.N,Net-(D4-K)*%
X137160000Y-119260000D03*
D18*
%TO.P,D4,2,A*%
%TO.N,Net-(D4-A)*%
X137160000Y-116720000D03*
%TD*%
D17*
%TO.P,D3,1,K*%
%TO.N,Net-(D1-K)*%
X92710000Y-119380000D03*
D18*
%TO.P,D3,2,A*%
%TO.N,Net-(D1-A)*%
X92710000Y-116840000D03*
%TD*%
D17*
%TO.P,D2,1,K*%
%TO.N,Net-(D1-K)*%
X92710000Y-111760000D03*
D18*
%TO.P,D2,2,A*%
%TO.N,Net-(D1-A)*%
X92710000Y-109220000D03*
%TD*%
%TO.P,D1,2,A*%
%TO.N,Net-(D1-A)*%
X92710000Y-101600000D03*
D17*
%TO.P,D1,1,K*%
%TO.N,Net-(D1-K)*%
X92710000Y-104140000D03*
%TD*%
D19*
%TO.P,C2,1*%
%TO.N,Net-(U1-THR)*%
X104680000Y-110490000D03*
D20*
%TO.P,C2,2*%
%TO.N,GND*%
X106680000Y-110490000D03*
%TD*%
D21*
%TO.P,C1,2*%
%TO.N,GND*%
X123190000Y-105410000D03*
%TO.P,C1,1*%
%TO.N,Net-(U2-THR)*%
X125690000Y-105410000D03*
%TD*%
M02*
